<svg width="104" height="51" viewBox="0 0 104 51" fill="none" xmlns="http://www.w3.org/2000/svg">
<g clip-path="url(#clip0_900_125)">
<path d="M74.8779 27.6233C80.3497 24.467 85.8069 21.285 91.2973 18.1614C96.5087 15.196 102.64 17.9309 103.822 23.7016C104.505 27.0399 103.021 30.6462 100.02 32.4026C90.1818 38.1607 80.329 43.896 70.427 49.5435C67.3623 51.2914 64.2053 50.9699 61.4124 48.8279C58.5751 46.6532 57.6809 43.6536 58.3464 40.1624C59.1061 37.5047 60.8448 35.7278 63.2161 34.3986C67.1368 32.2011 70.9938 29.8877 74.8779 27.6233Z" fill="#FABC05"/>
<path d="M78.8951 25.3283C73.4372 22.1475 67.9654 18.9917 62.5265 15.7787C57.3635 12.7284 56.6566 6.02827 61.0417 2.11473C63.5783 -0.148445 67.4299 -0.661301 70.4451 1.07066C80.33 6.74879 90.2019 12.451 100.023 18.2393C103.062 20.0308 104.363 22.9378 103.913 26.4381C103.456 29.9926 101.317 32.27 97.9738 33.4373C95.3019 34.1056 92.9006 33.4814 90.5687 32.0836C86.713 29.7722 82.7898 27.5739 78.8951 25.3283Z" fill="#109D58"/>
<path d="M29.1492 23.0776C25.6469 25.076 22.1426 27.0707 18.644 29.0752C16.5973 30.2478 14.5733 31.4604 12.5161 32.6134C8.37111 34.937 3.44655 33.5751 1.09639 29.4824C-1.14651 25.5771 0.142517 20.5138 4.13433 18.1735C13.8945 12.4521 23.6798 6.77233 33.5005 1.15621C36.5125 -0.566362 39.6373 -0.349714 42.4226 1.70946C45.3622 3.88288 46.3246 6.94125 45.6645 10.5268C45.255 11.3942 45.0104 12.4113 44.3974 13.0947C43.4 14.2065 42.2666 15.271 41.0048 16.0527C37.0999 18.4709 33.1077 20.7467 29.1492 23.0776Z" fill="#E94436"/>
<path d="M25.1335 25.3192C28.6081 27.3657 32.0804 29.4167 35.5583 31.4576C37.5924 32.6514 39.65 33.8056 41.6727 35.0178C45.749 37.4617 47.0373 42.4254 44.683 46.5156C42.4365 50.4194 37.4262 51.8302 33.412 49.5279C23.5983 43.8995 13.808 38.2291 4.05479 32.4955C1.06357 30.737 -0.311989 27.9108 0.0711052 24.4587C0.475324 20.8149 2.63129 18.4489 6.05314 17.2302C7.00579 17.1531 8.00517 16.8569 8.90136 17.0486C10.3586 17.3603 11.8434 17.8136 13.1483 18.5203C17.186 20.7072 21.1445 23.0417 25.1335 25.3192Z" fill="#4385F3"/>
</g>
<defs>
<clipPath id="clip0_900_125">
<rect width="104" height="51" fill="white"/>
</clipPath>
</defs>
</svg>
